<svg width="18" height="18" viewBox="0 0 18 18" fill="none" xmlns="http://www.w3.org/2000/svg">
<path d="M17.7503 8.998H16.5003C16.4021 8.998 16.3218 9.07836 16.3218 9.17657V16.3194H1.67892V1.67657H8.82178C8.91999 1.67657 9.00035 1.59621 9.00035 1.498V0.247999C9.00035 0.149785 8.91999 0.0694275 8.82178 0.0694275H0.786063C0.390974 0.0694275 0.0717773 0.388624 0.0717773 0.783713V17.2123C0.0717773 17.6074 0.390974 17.9266 0.786063 17.9266H17.2146C17.6097 17.9266 17.9289 17.6074 17.9289 17.2123V9.17657C17.9289 9.07836 17.8486 8.998 17.7503 8.998Z" fill="#359EFF"/>
<path d="M5.51583 9.50916L5.47342 12.1632C5.47118 12.3618 5.6319 12.5248 5.83056 12.5248H5.83949L8.47342 12.4601C8.51806 12.4578 8.5627 12.44 8.59395 12.4087L17.8774 3.14532C17.9466 3.07612 17.9466 2.96228 17.8774 2.89309L15.1029 0.120767C15.0672 0.0850526 15.0225 0.0694275 14.9756 0.0694275C14.9288 0.0694275 14.8841 0.0872847 14.8484 0.120767L5.56717 9.38416C5.53493 9.41788 5.51659 9.46251 5.51583 9.50916ZM6.93324 10.0359L14.9756 2.01139L15.9846 3.01809L7.9377 11.0471L6.91761 11.0717L6.93324 10.0359Z" fill="#359EFF"/>
</svg>
